<?xml version="1.0" encoding="utf-8" ?>
<svg baseProfile="full" height="1080px" version="1.1" width="1920px" xmlns="http://www.w3.org/2000/svg" xmlns:ev="http://www.w3.org/2001/xml-events" xmlns:xlink="http://www.w3.org/1999/xlink"><defs /><rect fill="rgb(53, 53, 212)" height="100%" width="100%" x="0" y="0" /><circle cx="988" cy="110" fill="white" r="2.320183466425496" /><circle cx="1557" cy="784" fill="white" r="2.1686935215840135" /><circle cx="1612" cy="585" fill="white" r="2.9917998174335" /><circle cx="1464" cy="253" fill="white" r="2.979572450880293" /><circle cx="1406" cy="597" fill="white" r="4.162388067350356" /><circle cx="1566" cy="632" fill="white" r="4.618634197220476" /><circle cx="1043" cy="132" fill="white" r="3.544234829172219" /><circle cx="307" cy="408" fill="white" r="4.44996043551731" /><circle cx="1906" cy="551" fill="white" r="3.2678285133768634" /><circle cx="1211" cy="709" fill="white" r="2.274191594728329" /><circle cx="1302" cy="138" fill="white" r="3.427344516749604" /><circle cx="993" cy="493" fill="white" r="3.3093487611291166" /><circle cx="235" cy="208" fill="white" r="3.7215208079771296" /><circle cx="128" cy="342" fill="white" r="2.7915966792257363" /><circle cx="1407" cy="214" fill="white" r="2.6960022592202946" /><circle cx="612" cy="900" fill="white" r="3.0729782015998928" /><circle cx="1621" cy="469" fill="white" r="2.391390616487787" /><circle cx="1031" cy="1065" fill="white" r="2.9710966736052837" /><circle cx="1744" cy="530" fill="white" r="4.424528068296657" /><circle cx="638" cy="1021" fill="white" r="3.519614067971083" /><circle cx="1380" cy="333" fill="white" r="4.0764928650858465" /><circle cx="429" cy="211" fill="white" r="4.08033128805812" /><circle cx="104" cy="334" fill="white" r="4.895838757926159" /><circle cx="1476" cy="400" fill="white" r="4.305965365690255" /><circle cx="1542" cy="41" fill="white" r="2.1551881183418" /><circle cx="317" cy="695" fill="white" r="3.1352674574612074" /><circle cx="1494" cy="316" fill="white" r="2.0262109553443195" /><circle cx="1796" cy="1024" fill="white" r="2.719284089444702" /><circle cx="1665" cy="1080" fill="white" r="4.4354243252483405" /><circle cx="551" cy="91" fill="white" r="3.0944124932960166" /><circle cx="1647" cy="170" fill="white" r="2.5168049448676255" /><circle cx="365" cy="732" fill="white" r="2.6918152334995127" /><circle cx="829" cy="466" fill="white" r="2.320065761461257" /><circle cx="1067" cy="990" fill="white" r="4.290288039548129" /><circle cx="1512" cy="592" fill="white" r="3.4868480558676422" /><circle cx="688" cy="58" fill="white" r="2.953630258033977" /><circle cx="1529" cy="414" fill="white" r="4.954662487268193" /><circle cx="1614" cy="969" fill="white" r="4.111199591170729" /><circle cx="1663" cy="872" fill="white" r="2.294584640865943" /><circle cx="1484" cy="929" fill="white" r="3.850744861904208" /><circle cx="1680" cy="471" fill="white" r="4.235794909735632" /><circle cx="730" cy="243" fill="white" r="2.678299561769272" /><circle cx="1799" cy="873" fill="white" r="3.462450380697056" /><circle cx="1871" cy="719" fill="white" r="3.8827807675670885" /><circle cx="397" cy="390" fill="white" r="4.55830292423237" /><circle cx="1263" cy="648" fill="white" r="3.373678767355117" /><circle cx="1788" cy="678" fill="white" r="2.3847118789576824" /><circle cx="434" cy="450" fill="white" r="3.9692370955801053" /><circle cx="1801" cy="206" fill="white" r="2.1178051610630027" /><circle cx="1132" cy="743" fill="white" r="4.536437213408847" /><circle cx="1839" cy="718" fill="white" r="3.042578629189691" /><circle cx="1259" cy="823" fill="white" r="3.637394339155446" /><circle cx="1432" cy="612" fill="white" r="2.089939319664144" /><circle cx="8" cy="865" fill="white" r="2.8587546130014507" /><circle cx="462" cy="541" fill="white" r="2.6548836565118927" /><circle cx="997" cy="534" fill="white" r="3.545286032072302" /><circle cx="844" cy="984" fill="white" r="2.5826819338157225" /><circle cx="1669" cy="989" fill="white" r="4.765653167968751" /><circle cx="141" cy="1064" fill="white" r="2.5371425423665728" /><circle cx="1335" cy="432" fill="white" r="4.978000532207196" /><circle cx="373" cy="538" fill="white" r="3.9381943674097233" /><circle cx="1204" cy="536" fill="white" r="2.9378695997681383" /><circle cx="521" cy="577" fill="white" r="2.731560389725196" /><circle cx="1738" cy="57" fill="white" r="2.6757783003193714" /><circle cx="1230" cy="121" fill="white" r="3.3264966656327335" /><circle cx="581" cy="465" fill="white" r="2.7542249245834585" /><circle cx="771" cy="269" fill="white" r="3.136858563076303" /><circle cx="631" cy="195" fill="white" r="4.797547259970422" /><circle cx="348" cy="805" fill="white" r="4.946529025245735" /><circle cx="1071" cy="720" fill="white" r="4.356940815443781" /><circle cx="226" cy="809" fill="white" r="4.742998878898041" /><circle cx="1407" cy="919" fill="white" r="3.8076041850298585" /><circle cx="1863" cy="813" fill="white" r="2.154199309942835" /><circle cx="725" cy="1014" fill="white" r="3.0452571158212836" /><circle cx="125" cy="1048" fill="white" r="3.0997168187497395" /><circle cx="1575" cy="1061" fill="white" r="3.880239593826138" /><circle cx="708" cy="654" fill="white" r="4.691668460659761" /><circle cx="649" cy="392" fill="white" r="3.7849368092624847" /><circle cx="648" cy="952" fill="white" r="3.6724687190950487" /><circle cx="757" cy="926" fill="white" r="4.814501282166966" /><circle cx="493" cy="255" fill="white" r="4.5067521068280545" /><circle cx="723" cy="539" fill="white" r="3.70286853096102" /><circle cx="997" cy="941" fill="white" r="3.6885718719640064" /><circle cx="598" cy="328" fill="white" r="2.978274634508025" /><circle cx="1306" cy="175" fill="white" r="4.153212399723291" /><circle cx="862" cy="540" fill="white" r="2.3810665229295047" /><circle cx="1219" cy="664" fill="white" r="2.7457655182602374" /><circle cx="5" cy="849" fill="white" r="2.69423300546647" /><circle cx="1799" cy="871" fill="white" r="3.2049048271749427" /><circle cx="957" cy="733" fill="white" r="4.447369461441243" /><circle cx="1697" cy="241" fill="white" r="4.675240115606437" /><circle cx="322" cy="699" fill="white" r="4.770790245766027" /><circle cx="993" cy="1046" fill="white" r="3.505920908444331" /><circle cx="314" cy="261" fill="white" r="2.1856885660653242" /><circle cx="740" cy="734" fill="white" r="3.4800076217745297" /><circle cx="1595" cy="578" fill="white" r="3.9820788177404087" /><circle cx="796" cy="284" fill="white" r="4.107139465474903" /><circle cx="212" cy="433" fill="white" r="4.314915147945218" /><circle cx="983" cy="856" fill="white" r="2.131814455688358" /><circle cx="1832" cy="224" fill="white" r="2.1569445831414193" /><circle cx="948" cy="185" fill="white" r="4.699599982324317" /><circle cx="341" cy="1065" fill="white" r="3.727637378047876" /><circle cx="613" cy="167" fill="white" r="4.871978367081608" /><circle cx="819" cy="328" fill="white" r="4.157697450306228" /><circle cx="466" cy="142" fill="white" r="3.0590111147019927" /><circle cx="1615" cy="97" fill="white" r="3.983075059595045" /><circle cx="950" cy="223" fill="white" r="4.906132797527432" /><circle cx="1525" cy="223" fill="white" r="4.426604360238722" /><circle cx="1309" cy="872" fill="white" r="2.6432055174334304" /><circle cx="799" cy="560" fill="white" r="4.281453924108056" /><circle cx="1577" cy="990" fill="white" r="4.12528625129866" /><circle cx="1586" cy="656" fill="white" r="2.2899879978054725" /><circle cx="1529" cy="1061" fill="white" r="3.074263776225515" /><circle cx="427" cy="1080" fill="white" r="2.5766016687926054" /><circle cx="231" cy="1" fill="white" r="4.839450539300328" /><circle cx="469" cy="1078" fill="white" r="3.992080398426686" /><circle cx="1220" cy="984" fill="white" r="3.5535608036869784" /><circle cx="788" cy="1079" fill="white" r="4.780488216449073" /><circle cx="1282" cy="93" fill="white" r="4.166566306012296" /><circle cx="624" cy="741" fill="white" r="2.4771381082962898" /><circle cx="1514" cy="585" fill="white" r="3.3282338258532485" /><circle cx="1344" cy="12" fill="white" r="4.629612146046472" /><circle cx="98" cy="500" fill="white" r="2.9102898875064844" /><circle cx="481" cy="580" fill="white" r="2.7271439012740246" /><circle cx="542" cy="114" fill="white" r="4.3704444604905035" /><circle cx="1628" cy="247" fill="white" r="4.476716027417826" /><circle cx="1407" cy="191" fill="white" r="3.4659506474224715" /><circle cx="358" cy="132" fill="white" r="2.826918214368468" /><circle cx="1435" cy="1039" fill="white" r="3.577519436205931" /><circle cx="400" cy="583" fill="white" r="3.528187076034617" /><circle cx="492" cy="675" fill="white" r="3.5284728871704827" /><circle cx="778" cy="133" fill="white" r="4.859827892723096" /><circle cx="1505" cy="111" fill="white" r="4.700214851682304" /><circle cx="1573" cy="578" fill="white" r="3.8770249517683597" /><circle cx="1802" cy="1046" fill="white" r="4.7002800142889445" /><circle cx="872" cy="759" fill="white" r="4.97941915743021" /><circle cx="1170" cy="729" fill="white" r="2.223606298012623" /><circle cx="1486" cy="728" fill="white" r="4.826976575345432" /><circle cx="1776" cy="155" fill="white" r="3.7829408167673377" /><circle cx="509" cy="1044" fill="white" r="4.925789289301472" /><circle cx="1777" cy="874" fill="white" r="4.366333614162579" /><circle cx="72" cy="549" fill="white" r="2.537704624197801" /><circle cx="1368" cy="228" fill="white" r="3.777206246645033" /><circle cx="1465" cy="1019" fill="white" r="2.036179378260292" /><circle cx="969" cy="324" fill="white" r="4.802383771209538" /><circle cx="301" cy="111" fill="white" r="3.957158347393462" /><circle cx="1015" cy="289" fill="white" r="2.4601610280285247" /><circle cx="814" cy="723" fill="white" r="4.325676188632379" /><circle cx="346" cy="822" fill="white" r="4.652432244238142" /><circle cx="1005" cy="227" fill="white" r="2.3801385489982314" /></svg>